<svg width="24" height="15" viewBox="0 0 24 15" version="1.1" xmlns="http://www.w3.org/2000/svg" xmlns:xlink="http://www.w3.org/1999/xlink">
<title>Google Icon</title>
<desc>Created using Figma</desc>
<g id="Canvas" transform="translate(395 -740)">
<g id="Google Icon">
<use xlink:href="#path0_fill" transform="translate(-395 740)" fill="#FFFFFF"/>
</g>
</g>
<defs>
<path id="path0_fill" fill-rule="evenodd" d="M 21.235 6.37699L 21.235 3.67899L 19.233 3.67899L 19.233 6.37699L 16.48 6.37699L 16.48 8.33899L 19.233 8.33899L 19.233 11.037L 21.235 11.037L 21.235 8.33899L 23.987 8.33899L 23.987 6.37699L 21.235 6.37699ZM 7.514 5.825L 7.514 8.9L 11.799 8.9C 11.157 10.535 9.524 11.697 7.611 11.697C 5.137 11.697 3.131 9.757 3.131 7.363C 3.131 4.969 5.137 3.029 7.611 3.029C 8.713 3.029 9.721 3.415 10.502 4.054L 12.745 1.93C 11.391 0.732 9.59 0 7.611 0C 3.407 0 0 3.296 0 7.363C 0 11.43 3.407 14.727 7.611 14.727C 11.814 14.727 15.22 11.43 15.22 7.363C 15.22 6.836 15.163 6.321 15.054 5.825L 7.514 5.825Z"/>
</defs>
</svg>
