<svg width="254" height="74" viewBox="0 0 254 74" version="1.1" xmlns="http://www.w3.org/2000/svg" xmlns:xlink="http://www.w3.org/1999/xlink">
<title>Logo</title>
<desc>Created using Figma</desc>
<g id="Canvas" transform="translate(-343 149)">
<g id="Logo">
<g id="Group 3">
<mask id="mask0_outline" mask-type="alpha">
<g id="Clip 2">
<use xlink:href="#path0_fill" transform="translate(343 -149)" fill="#FFFFFF"/>
</g>
</mask>
<g id="Fill 1" mask="url(#mask0_outline)">
<use xlink:href="#path1_fill" transform="translate(343 -149)" fill="#FFFFFF"/>
</g>
</g>
<g id="Fill 4">
<use xlink:href="#path2_fill" transform="translate(366.466 -140.296)" fill="#FFFFFF"/>
</g>
<g id="Fill 5">
<use xlink:href="#path3_fill" transform="translate(378.698 -127.85)" fill="#FFFFFF"/>
</g>
<g id="Fill 6">
<use xlink:href="#path4_fill" transform="translate(399.904 -127.85)" fill="#FFFFFF"/>
</g>
<g id="Fill 7">
<use xlink:href="#path5_fill" transform="translate(421.774 -141.735)" fill="#FFFFFF"/>
</g>
<g id="Fill 8">
<use xlink:href="#path6_fill" transform="translate(445.264 -146.669)" fill="#FFFFFF"/>
</g>
<g id="Fill 9">
<use xlink:href="#path7_fill" transform="translate(494.763 -127.85)" fill="#FFFFFF"/>
</g>
<g id="Fill 10">
<use xlink:href="#path8_fill" transform="translate(518.653 -141.735)" fill="#FFFFFF"/>
</g>
<g id="Fill 11">
<use xlink:href="#path9_fill" transform="translate(544.753 -126.776)" fill="#FFFFFF"/>
</g>
<g id="Fill 12">
<use xlink:href="#path10_fill" transform="translate(565.826 -127.85)" fill="#FFFFFF"/>
</g>
</g>
</g>
<defs>
<path id="path0_fill" fill-rule="evenodd" d="M 37.1888 73.3648L 0 73.3648L 0 36.6824L 0 0L 37.1888 0L 37.1888 73.3648Z"/>
<path id="path1_fill" fill-rule="evenodd" d="M 24.4595 11.0434C 15.2212 13.5829 4.188 13.5143 0 11.4064C 0.132952 15.1099 1.86133 18.0126 5.25162 19.9006C 8.83949 19.9006 15.6865 19.1018 22.5317 15.9793C 20.8717 20.4109 19.4757 24.4029 17.282 30.7931C 11.8309 30.6459 5.51752 30.9364 1.6619 31.7352C 1.32952 33.0443 2.99143 36.312 4.05505 37.1088C 6.84705 36.4553 11.2326 35.6585 15.753 35.1482C 11.8309 46.6922 7.11111 62.3029 5.51752 68.4753C 5.584 71.382 10.9667 73.3406 11.698 73.4859C 11.8309 73.4859 11.9639 73.3406 12.0968 73.0502C 12.6951 71.0169 14.6229 66.1536 17.2155 62.8858C 16.1519 62.8858 14.7559 63.4647 13.3599 64.554C 15.5536 56.0598 19.3427 43.9348 22.7312 34.7124C 24.5925 34.7124 26.3209 34.7851 27.8498 34.9303C 27.3845 33.2601 26.7197 31.7352 25.7226 31.3015C 25.2573 31.2289 24.7255 31.1562 24.0607 31.0836C 27.2515 22.6621 30.5754 15.3278 32.1708 12.2052C 35.5611 10.535 37.6865 5.37923 37.0882 2.83764C 36.4917 0.515911 30.11 -0.718578 28.5811 0.443294C 26.8527 4.72568 25.5896 8.14069 24.4595 11.0434Z"/>
<path id="path2_fill" fill-rule="evenodd" d="M 18.0797 0.235136C 15.2212 5.38892 15.4206 5.17107 13.5593 10.4701C 14.4235 10.9784 16.6172 11.632 18.545 11.9244C 21.3352 7.56743 24.1936 4.59014 27.5175 0.668821C 24.3266 -0.129966 20.471 -0.129966 18.0797 0.235136ZM 0 46.2662C 1.26305 39.7307 6.8452 23.5411 11.0332 14.0283C 12.4292 13.9577 18.678 15.6259 17.8138 17.2961C 14.5564 22.3066 6.5793 40.9652 5.58215 46.2662C 9.50425 41.4755 13.3599 36.7554 16.0854 34.5023C 17.4814 33.3444 19.0768 32.8341 20.5375 34.7221C 17.282 36.1018 7.77587 46.6293 5.05219 49.8244C 2.92495 49.897 0.398857 48.1542 0 46.2662Z"/>
<path id="path3_fill" fill-rule="evenodd" d="M 21.8688 8.98965C 20.7369 11.6018 17.3484 19.6643 22.8641 20.6084C 22.8641 15.741 27.7834 7.24482 31.1736 2.23627C 30.3759 1.14702 28.3152 -0.59579 25.4567 0.202997L 24.3266 2.81721C 20.8034 5.86712 14.9553 11.7491 12.7616 15.5252C 14.4235 11.5292 16.2183 7.82778 17.8138 4.85048C 18.678 3.18029 12.4292 1.51212 11.0332 1.58272C 6.8452 11.0955 1.06362 29.0299 0 33.8206C 0 35.7087 2.792 37.3788 4.85092 37.3788C 5.25162 35.9245 5.71695 34.4036 6.24692 32.7314C 13.094 17.1227 18.2791 12.9816 21.8688 8.98965Z"/>
<path id="path4_fill" fill-rule="evenodd" d="M 10.5679 34.5468C 4.78629 33.3869 6.8452 24.2372 9.3713 19.0814C 7.04463 19.0088 4.12152 19.5171 2.06076 21.042C 1.32952 23.1479 0.398857 26.0526 0 28.1585C 0.465333 33.4575 3.39029 36.5095 7.24591 37.8872C 9.50425 37.8872 13.8252 36.7979 16.9496 34.9099C 20.5375 23.2206 13.8917 4.99773 21.9999 5.57665C 19.4757 11.6018 17.0161 19.737 21.9999 20.6084C 21.9999 15.741 26.8527 7.24482 30.243 2.23627C 29.4453 1.14702 27.3845 -0.59579 24.526 0.202997C 24.1936 0.85655 23.7283 1.72795 23.1965 2.74661C 22.0664 2.09104 20.2734 0.713333 19.2763 0.348231C 5.51568 2.67197 15.4206 26.1958 10.5679 34.5468Z"/>
<path id="path5_fill" fill-rule="evenodd" d="M 30.0435 9.6582C 27.7169 9.73284 23.3295 9.80545 21.0028 9.80545C 22.1329 7.55231 23.2648 5.3032 24.3931 3.26993C 25.3237 1.59974 18.8091 -0.0684351 17.4149 0.00216469C 16.3513 2.32591 14.8223 5.88414 13.1604 10.0233C 11.6315 10.0233 11.9639 10.0959 10.5014 10.1685C 10.3684 10.1685 10.169 10.3138 9.96958 10.6022C 9.83663 10.8221 9.6372 11.1126 9.50425 11.3284C 9.3713 11.6189 9.23835 11.9093 9.17187 12.1998C 9.10539 12.4176 9.03892 12.6355 9.03892 12.7807C 9.03892 12.8533 9.03892 12.8533 9.03892 12.8533L 9.10539 12.8533C 10.6343 12.8533 10.3684 12.926 11.9639 12.926C 6.8452 25.7045 0.797714 42.2592 0 47.7055C 0.398857 49.5935 2.92311 51.3363 5.05219 51.2637C 7.64476 47.9233 18.4785 37.4685 22.9306 36.1614C 21.4681 34.2733 18.4785 34.7837 17.0825 35.9415C 14.357 38.1947 9.50425 42.9148 5.58215 47.7055C 8.04177 40.5184 13.4928 25.8498 19.4738 13.1458C 21.4681 13.1458 25.5232 13.2164 27.5175 13.2164C 27.6504 13.2164 27.8498 13.2164 27.9828 13.2164C 28.1157 13.1458 28.1822 13.0712 28.2487 13.0712C 28.4481 12.8533 28.714 12.5649 28.9799 12.1998C 29.3123 11.7661 29.5782 11.403 29.7776 11.0379C 30.0435 10.6769 30.1765 10.3864 30.243 10.0959C 30.3095 9.80545 30.3095 9.6582 30.0435 9.6582Z"/>
<path id="path6_fill" fill-rule="evenodd" d="M 26.6295 55.1808C 22.5098 51.1143 25.3664 33.8335 27.6266 27.8809C 33.8754 22.1441 39.8564 18.2975 47.7671 13.2869C 46.8364 23.4513 40.8535 51.2595 26.6295 55.1808ZM 45.108 6.38829C 45.6398 6.75339 44.975 10.3076 44.0444 11.3262C 40.3217 14.3035 35.8678 17.2062 31.2163 20.1109C 34.806 13.2869 39.9893 6.38829 45.108 6.38829ZM 49.0965 7.69538C 49.0965 4.28238 47.767 1.30509 44.0443 0C 33.6741 0.363085 25.2999 14.0857 20.713 26.5012C 10.9429 33.7629 2.23636 39.9313 0.042641 48.6473C -0.356216 52.7845 2.1034 55.907 4.8954 57.7224C 6.09013 48.6473 12.6048 40.5142 18.3882 35.5763C 16.3275 47.193 18.7206 58.3033 28.0254 59.3926C 46.8363 55.7618 54.4793 26.5012 55.9417 7.55216C 55.144 6.46089 51.4897 6.24304 49.0965 7.69538Z"/>
<path id="path7_fill" fill-rule="evenodd" d="M 21.8688 8.98965C 20.7387 11.6018 17.3484 19.6643 22.866 20.6084C 22.866 15.741 27.7852 7.24482 31.1736 2.23627C 30.3759 1.14702 28.3152 -0.59579 25.4585 0.202997L 24.3284 2.81721C 20.8052 5.86712 14.9553 11.7491 12.7616 15.5252C 14.4235 11.5292 16.2183 7.82778 17.8138 4.85048C 18.678 3.18029 12.4292 1.51212 11.0332 1.58272C 6.84705 11.0955 1.06362 29.0299 0 33.8206C 0 35.7087 2.792 37.3788 4.85276 37.3788C 5.25162 35.9245 5.71695 34.4036 6.24876 32.7314C 13.0958 17.1227 18.2791 12.9816 21.8688 8.98965Z"/>
<path id="path8_fill" fill-rule="evenodd" d="M 6.48775 45.5996C 4.36236 45.0186 8.14966 35.29 8.41556 34.6364C 10.7422 28.7544 14.199 22.2915 16.7916 19.4615L 20.6453 23.2356C 17.3234 29.0469 10.9435 42.7675 6.48775 45.5996ZM 30.3509 0.00216469C 28.556 3.92348 25.5664 11.1126 22.5732 18.8826C 20.3148 17.5008 17.5893 15.9012 15.3956 15.1045C 15.2626 15.0319 15.1961 15.1045 15.1961 15.1045C 8.41557 18.5901 -0.689822 38.6304 0.0414163 47.9959C 0.639702 49.4503 3.29875 50.7554 5.09361 50.828C 8.94738 49.2304 12.803 42.9874 16.0603 36.7423C 14.4649 41.533 13.2683 45.5269 12.936 47.7055C 13.3348 49.5935 15.8609 51.3363 17.9881 51.2637C 20.7137 48.0685 30.2179 37.5411 33.4753 36.1614C 32.0128 34.2733 30.4173 34.7837 29.0878 35.9415C 26.2958 38.1947 22.442 42.9148 18.52 47.7055C 21.6443 38.4851 29.6861 17.283 37.3973 3.26993C 38.2615 1.59974 31.7469 -0.0684351 30.3509 0.00216469Z"/>
<path id="path9_fill" fill-rule="evenodd" d="M 21.2687 3.99393C 20.2715 10.9652 16.8166 17.7891 10.169 19.0942C 12.8281 13.1416 17.8802 6.82599 21.2687 3.99393ZM 29.5117 15.1043C 28.4481 21.0569 7.24406 39.2797 6.71225 31.8022C 6.44634 30.132 7.24406 26.8642 8.57358 23.0882C 11.4321 21.8577 19.6068 19.9676 21.4681 22.7271C 21.3352 20.1129 20.4045 18.8784 19.2079 18.4427C 22.8641 14.5214 24.5925 11.3282 25.7226 5.2264C 24.0607 2.68683 20.5375 0.942003 18.2791 0C 9.10539 3.70346 1.6619 18.5899 0 27.0841C 0.465333 32.3831 3.39029 35.4351 7.24406 36.8128C 13.9582 36.8128 27.318 25.3413 30.7748 19.8244C 31.506 18.5899 30.6418 16.2642 29.5117 15.1043Z"/>
<path id="path10_fill" fill-rule="evenodd" d="M 21.8688 8.98965C 20.7369 11.6018 17.3484 19.6643 22.866 20.6084C 22.866 15.741 27.7834 7.24482 31.1736 2.23627C 30.3759 1.14702 28.3152 -0.59579 25.4567 0.202997L 24.3284 2.81721C 20.8034 5.86712 14.9553 11.7491 12.7616 15.5252C 14.4235 11.5292 16.2183 7.82778 17.8138 4.85048C 18.678 3.18029 12.4292 1.51212 11.0332 1.58272C 6.8452 11.0955 1.06362 29.0299 0 33.8206C 0 35.7087 2.79015 37.3788 4.85092 37.3788C 5.24977 35.9245 5.71511 34.4036 6.24876 32.7314C 13.094 17.1227 18.2791 12.9816 21.8688 8.98965Z"/>
</defs>
</svg>
