<svg width="429" height="450" viewBox="0 0 429 450" version="1.1" xmlns="http://www.w3.org/2000/svg" xmlns:xlink="http://www.w3.org/1999/xlink">
<title>Placeholder</title>
<desc>Created using Figma</desc>
<g id="Canvas" transform="translate(-382 -2281)">
<g id="Placeholder">
<g id="Placeholder">
<g id="Placeholder" opacity="0.1">
<use xlink:href="#path0_fill" transform="translate(382 2281)" fill="#141414"/>
</g>
<g id="Photo Icon" opacity="0.2">
<use xlink:href="#path1_fill" transform="translate(550.422 2458)" fill="#171818"/>
</g>
</g>
</g>
</g>
<defs>
<path id="path0_fill" fill-rule="evenodd" d="M 0 2C 0 0.895431 0.895431 0 2 0L 427 0C 428.105 0 429 0.895431 429 2L 429 448C 429 449.105 428.105 450 427 450L 2 450C 0.895431 450 0 449.105 0 448L 0 2Z"/>
<path id="path1_fill" fill-rule="evenodd" d="M 88.462 69.7831L 63.0398 18.7891C 62.7283 18.2491 62.3136 17.9821 61.8973 18.0031C 61.4747 18.0391 61.0791 18.3871 60.7931 18.9811L 45.2315 51.1561L 37.6954 36.9331C 37.1027 35.8111 36.1526 35.7511 35.5234 36.7981L 0.539222 99.7471C -0.120167 100.842 -0.183723 102.738 0.397811 103.986C 0.710822 104.658 1.14936 105 1.59107 105C 1.96128 105 2.33626 104.751 2.63973 104.253L 36.5037 43.1671L 52.8725 74.0701C 53.4937 75.2401 54.4963 75.2401 55.1191 74.0701C 55.7404 72.8941 55.7404 71.0011 55.1191 69.8281L 47.4798 55.4071L 62.0674 25.2451L 86.317 74.2111C 86.9621 75.3361 87.9694 75.2521 88.5621 74.0281C 89.1531 72.8071 89.1118 70.9051 88.462 69.7831ZM 14.3021 5.99707C 17.4274 5.99707 19.9712 10.8091 19.9712 16.7041C 19.9712 22.6081 17.4274 27.4111 14.3021 27.4111C 11.1736 27.4111 8.63135 22.6081 8.63135 16.7071C 8.63135 10.8121 11.1736 5.99707 14.3021 5.99707ZM 14.3021 33.414C 19.18 33.414 23.1507 25.92 23.1507 16.707C 23.1507 7.497 19.18 0 14.3021 0C 9.42107 0 5.45361 7.497 5.45361 16.704C 5.45361 25.92 9.42107 33.414 14.3021 33.414Z"/>
</defs>
</svg>
