<svg width="19" height="15" viewBox="0 0 19 15" version="1.1" xmlns="http://www.w3.org/2000/svg" xmlns:xlink="http://www.w3.org/1999/xlink">
<title>Twitter icon</title>
<desc>Created using Figma</desc>
<g id="Canvas" transform="translate(465 -740)">
<g id="Twitter icon">
<use xlink:href="#path0_fill" transform="translate(-465 740)" fill="#FFFFFF"/>
</g>
</g>
<defs>
<path id="path0_fill" fill-rule="evenodd" d="M 18.195 1.743C 17.526 2.039 16.806 2.238 16.051 2.329C 16.822 1.868 17.414 1.14 17.692 0.272C 16.97 0.698 16.173 1.008 15.322 1.174C 14.641 0.451 13.671 0 12.596 0C 10.535 0 8.863 1.664 8.863 3.717C 8.863 4.01 8.897 4.293 8.961 4.565C 5.859 4.411 3.108 2.93 1.267 0.681C 0.945 1.229 0.762 1.868 0.762 2.55C 0.762 3.839 1.421 4.978 2.422 5.644C 1.81 5.624 1.235 5.457 0.732 5.179C 0.732 5.194 0.732 5.21 0.732 5.226C 0.732 7.027 2.018 8.529 3.726 8.871C 3.413 8.955 3.084 9.001 2.743 9.001C 2.503 9.001 2.268 8.978 2.04 8.935C 2.515 10.411 3.894 11.486 5.527 11.516C 4.25 12.513 2.64 13.108 0.891 13.108C 0.59 13.108 0.292 13.09 0 13.056C 1.652 14.11 3.614 14.726 5.723 14.726C 12.589 14.726 16.343 9.061 16.343 4.148C 16.343 3.987 16.34 3.827 16.333 3.668C 17.062 3.144 17.695 2.489 18.195 1.744L 18.195 1.743Z"/>
</defs>
</svg>
